<svg width="80" height="80" viewBox="0 0 80 80" fill="none" xmlns="http://www.w3.org/2000/svg">
<g clip-path="url(#clip0_4311_2076)">
<path fill-rule="evenodd" clip-rule="evenodd" d="M0 0H80V80H0V0Z" fill="white"/>
<mask id="mask0_4311_2076" style="mask-type:luminance" maskUnits="userSpaceOnUse" x="0" y="0" width="80" height="80">
<path d="M0 0H80V80H0V0Z" fill="white"/>
</mask>
<g mask="url(#mask0_4311_2076)">
<path fill-rule="evenodd" clip-rule="evenodd" d="M30.1035 12.1725H27.6188L26.8737 18.2416C26.6698 19.9106 25.5514 20.8886 24.1255 20.8886C22.6604 20.8886 21.9396 19.9506 22.1451 18.2816L22.8949 12.1718H20.4322L19.5929 19.0141C19.2847 21.5184 20.4894 23.1475 22.9129 23.1475C24.582 23.1475 25.6871 22.2714 26.5051 21.2541L26.2996 22.9231H28.7843L30.1051 12.1718L30.1035 12.1725ZM5.53098 22.9239H12.1271C15.3035 22.9239 17.5686 21.5592 17.8816 19.0149L17.8855 18.9741C18.1231 17.0392 17.08 16.0824 15.4808 15.5122C16.6047 14.9631 17.6957 14.0455 17.9059 12.3357L17.9114 12.2949C18.0275 11.338 17.7969 10.5639 17.2431 9.93412C16.5294 9.11843 15.3004 8.67137 13.6722 8.67137H7.28078L5.53098 22.9239ZM30.7435 26.1827H33.2078L33.8133 21.2549C34.4439 22.2525 35.4525 23.1482 37.2447 23.1482C39.7906 23.1482 42.4816 21.1325 42.9192 17.5686L42.9239 17.5294C43.3631 13.9451 41.1451 11.949 38.6196 11.949C36.8706 11.949 35.6392 12.8447 34.7082 13.9647L34.9278 12.1725H32.4651L30.7435 26.1827ZM48.5051 23.1475C50.2541 23.1475 51.4855 22.2533 52.4173 21.1318L52.1976 22.9239H54.6604L55.9812 12.1725H53.5184L53.3122 13.8431C52.6643 12.8235 51.6518 11.949 49.88 11.949C47.3153 11.949 44.6439 13.9647 44.2063 17.5286L44.2016 17.5678C43.7624 21.1318 45.9796 23.1475 48.5051 23.1475ZM29.9388 32.6925L29.6675 34.9122H49.52C53.6659 34.9122 56 32.6926 57.2047 31.1043L59.6424 35.6024C59.749 35.7996 59.913 35.9599 60.1127 36.062C60.3123 36.1642 60.5383 36.2034 60.7606 36.1745C60.983 36.1456 61.1914 36.05 61.3584 35.9002C61.5253 35.7505 61.6429 35.5536 61.6957 35.3357L66.6918 13.469L69.0275 39.9608C69.0509 40.2433 69.1663 40.5103 69.356 40.721C69.5457 40.9317 69.7992 41.0744 70.0777 41.1272C70.3563 41.1801 70.6444 41.1402 70.8981 41.0137C71.1518 40.8871 71.357 40.6809 71.4824 40.4267L75.2376 32.6369C75.9435 33.7271 77.0416 34.9114 78.7122 34.9114H80V80H0V0H80V32.6933H78.7122C77.7098 32.6933 76.9396 31.211 76.5263 30.4141C76.3145 30.0063 76.1757 29.738 75.9616 29.531C75.8375 29.4113 75.6873 29.3222 75.5227 29.2707C75.3582 29.2193 75.184 29.2069 75.0138 29.2345C74.8437 29.2621 74.6823 29.329 74.5425 29.4299C74.4028 29.5308 74.2884 29.6629 74.2086 29.8157L70.9404 36.7992L68.4188 8.94824C68.3846 8.61463 68.2336 8.30382 67.9926 8.07062C67.7516 7.83742 67.436 7.6968 67.1014 7.67355C66.7669 7.65029 66.4349 7.7459 66.1639 7.94352C65.893 8.14113 65.7005 8.42806 65.6204 8.75373L60.2227 32.0133L58.2886 28.4447C58.2152 28.3095 58.1145 28.1911 57.9928 28.0969C57.8712 28.0027 57.7314 27.9348 57.5821 27.8974C57.4329 27.8601 57.2775 27.8542 57.1258 27.8801C56.9742 27.906 56.8296 27.9631 56.7012 28.0478C56.4533 28.2126 56.3278 28.4165 56.1208 28.7506C55.4526 29.829 53.6784 32.6925 49.5208 32.6925H29.9388ZM49.3584 21.0102C51.0055 21.0102 52.6431 19.6259 52.8957 17.5686L52.9004 17.5294C53.1561 15.451 51.8573 14.0863 50.2078 14.0863C48.5184 14.0863 46.9529 15.3906 46.691 17.5294L46.6863 17.5686C46.4314 19.6471 47.6902 21.0102 49.3584 21.0102ZM36.9169 21.0102C38.6063 21.0102 40.1537 19.6863 40.4133 17.5686L40.4188 17.5294C40.6737 15.451 39.4361 14.0863 37.7678 14.0863C36.0973 14.0863 34.4612 15.4722 34.2086 17.5294L34.2039 17.5686C33.9529 19.6259 35.2463 21.0102 36.9169 21.0102ZM15.4094 18.749L15.4141 18.7098C15.5616 17.5082 14.6925 16.7961 12.7161 16.7961H8.74588L8.26667 20.7059H12.4204C14.1302 20.7059 15.2518 20.0337 15.4102 18.749H15.4094ZM12.4267 14.6784H9.00706L9.47216 10.8902H13.0753C14.6831 10.8902 15.4957 11.5827 15.3576 12.702L15.3522 12.7427C15.1922 14.0463 14.0345 14.6784 12.4267 14.6784Z" fill="#0079C8"/>
</g>
<mask id="mask1_4311_2076" style="mask-type:luminance" maskUnits="userSpaceOnUse" x="5" y="7" width="75" height="35">
<path d="M5.53076 7.66895H79.9998V41.1489H5.53076V7.66895Z" fill="white"/>
</mask>
<g mask="url(#mask1_4311_2076)">
<path fill-rule="evenodd" clip-rule="evenodd" d="M36.9166 21.0101C38.6068 21.0101 40.1543 19.687 40.4147 17.5693L40.4194 17.5285C40.6743 15.4517 39.4366 14.0877 37.7684 14.0877C36.0978 14.0877 34.4617 15.4721 34.2092 17.5293L34.2045 17.5709C33.9512 19.6274 35.2476 21.0117 36.9159 21.0117L36.9166 21.0101ZM33.2068 26.1826H30.7441L32.4641 12.1732H34.9284L34.7088 13.9654C35.639 12.8438 36.8704 11.9497 38.6202 11.9497C41.1441 11.9497 43.3629 13.9442 42.9229 17.5285L42.9182 17.5701C42.4806 21.134 39.7888 23.1489 37.2437 23.1489C35.4523 23.1489 34.4437 22.2532 33.8131 21.2556L33.2076 26.1834L33.2068 26.1826ZM27.6194 12.1732L26.8743 18.2407C26.6704 19.9097 25.5527 20.8877 24.1261 20.8877C22.661 20.8877 21.9402 19.9505 22.1449 18.2815L22.8963 12.1717H20.4327L19.5912 19.014C19.2853 21.5191 20.4884 23.1474 22.9112 23.1474C24.5817 23.1474 25.6861 22.2721 26.5033 21.254L26.2994 22.9246H28.7833L30.1033 12.1709H27.6186L27.6194 12.1732ZM12.7174 16.7952H8.74645L8.26802 20.705H12.4202C14.13 20.705 15.2515 20.0336 15.41 18.7505L15.4139 18.7097C15.5629 17.5097 14.6923 16.796 12.7182 16.796L12.7174 16.7952ZM9.00762 14.6776H12.4272C14.0366 14.6776 15.1935 14.0462 15.3527 12.7426L15.3582 12.7019C15.4963 11.5819 14.6837 10.8901 13.0759 10.8901H9.47272L9.00684 14.6768L9.00762 14.6776ZM15.4814 15.5121C17.0814 16.083 18.1245 17.0391 17.8861 18.974L17.8813 19.0148C17.5676 21.5599 15.3033 22.9246 12.1276 22.9246H5.53076L7.27978 8.67128H13.6743C15.3025 8.67128 16.5292 9.1199 17.2453 9.93402C17.7982 10.5654 18.0296 11.3395 17.9119 12.2964L17.9072 12.3356C17.697 14.0454 16.6068 14.963 15.4814 15.5121ZM49.3574 21.0101C51.0061 21.0101 52.6421 19.6258 52.8947 17.5693L52.8986 17.5285C53.1551 15.4517 51.857 14.0877 50.2068 14.0877C48.5166 14.0877 46.9519 15.3897 46.69 17.5293L46.6837 17.5709C46.428 19.647 47.6876 21.0117 49.3559 21.0117L49.3574 21.0101ZM44.2006 17.5693L44.2053 17.5285C44.6445 13.9662 47.3143 11.9497 49.8798 11.9497C51.6523 11.9497 52.6641 12.8242 53.3119 13.843L53.5174 12.1748H55.9825L54.6602 22.9238H52.1974L52.417 21.1332C51.4853 22.2525 50.2555 23.1489 48.5049 23.1489C45.9794 23.1489 43.7629 21.1332 44.2006 17.5693ZM79.999 32.6932V34.9128H78.7112C77.0406 34.9128 75.9425 33.727 75.2366 32.6368L71.4813 40.4274C71.3559 40.6817 71.1506 40.8879 70.8968 41.0144C70.6429 41.1408 70.3546 41.1806 70.0761 41.1275C69.7975 41.0745 69.544 40.9316 69.3544 40.7207C69.1648 40.5098 69.0496 40.2425 69.0264 39.9599L66.6939 13.4697L61.6963 35.3364C61.6433 35.5541 61.5257 35.7507 61.3588 35.9003C61.192 36.0498 60.9837 36.1453 60.7615 36.1742C60.5393 36.203 60.3136 36.1639 60.114 36.062C59.9145 35.96 59.7505 35.8 59.6437 35.603L57.2045 31.1058C56.0006 32.694 53.6657 34.9136 49.5198 34.9136H29.6688L29.9386 32.694H49.519C53.6774 32.694 55.4515 29.8313 56.119 28.7528C56.3268 28.4179 56.4515 28.2156 56.6994 28.0509C56.8277 27.9659 56.9723 27.9086 57.124 27.8826C57.2757 27.8566 57.4312 27.8624 57.5805 27.8998C57.7298 27.9371 57.8697 28.0051 57.9913 28.0994C58.1129 28.1938 58.2136 28.3124 58.2868 28.4477L60.221 32.0148L65.6202 8.7552C65.7012 8.43053 65.8941 8.14479 66.1649 7.94817C66.4356 7.75154 66.767 7.6566 67.1009 7.68C67.4347 7.7034 67.7496 7.84366 67.9903 8.07614C68.231 8.30862 68.3821 8.61847 68.417 8.95128L70.9402 36.7999L74.2084 29.8172C74.2884 29.6646 74.4027 29.5328 74.5424 29.4321C74.6821 29.3314 74.8434 29.2646 75.0133 29.237C75.1833 29.2094 75.3574 29.2217 75.5218 29.273C75.6862 29.3243 75.8364 29.4131 75.9606 29.5325C76.1755 29.7387 76.3151 30.0077 76.5268 30.4156C76.941 31.2117 77.7088 32.6948 78.7119 32.6948H79.9998L79.999 32.6932Z" fill="white"/>
</g>
</g>
<defs>
<clipPath id="clip0_4311_2076">
<rect width="80" height="80" fill="white"/>
</clipPath>
</defs>
</svg>
