<?xml version="1.0" encoding="utf-8"?>
<svg width="182" height="39" viewBox="0 0 182 39" fill="none" xmlns="http://www.w3.org/2000/svg">
  <path d="M40.5713 6.26053H55.0345V10.9725H46.1996V14.3102H53.7257V19.0219H46.1996V22.8175H55.3616V27.5294H40.5713V6.26053Z" fill="#00A499" />
  <path d="M58.959 25.4356L61.3149 21.967C63.3765 23.1777 65.6342 23.7995 67.7284 23.7995C69.1683 23.7995 69.7571 23.4067 69.7571 22.8177C69.7571 22.0324 68.9064 21.9015 66.1579 21.3125C61.6422 20.3309 60.0063 18.6293 60.0063 16.077C60.0063 12.8702 63.0494 10.776 67.7938 10.776C70.8697 10.776 73.3237 11.9866 75.0581 13.0666L72.5713 16.4043C70.8697 15.4227 68.9717 14.899 67.2703 14.899C66.2232 14.899 65.5687 15.2263 65.5687 15.8151C65.5687 16.5349 66.4194 16.6003 68.9719 17.1896C73.88 18.3021 75.3199 19.7746 75.3199 22.4905C75.3199 25.5663 72.4076 27.9224 66.9432 27.9224C64.1292 27.9224 61.0534 26.8098 58.9592 25.4354L58.959 25.4356Z" fill="#00A499" />
  <path d="M78.4331 19.3494C78.4331 13.983 82.6215 10.7762 87.0063 10.7762C92.1763 10.7762 94.7941 14.3104 94.7941 18.6947C94.7941 19.6766 94.6304 20.6582 94.5651 21.0508H82.687V17.3862H90.6711L89.8859 18.3678C89.8859 16.2081 89.035 15.0301 87.2027 15.0301C85.043 15.0301 83.865 16.4046 83.865 19.3494C83.865 22.2943 85.3704 23.6688 88.3808 23.6688C89.6897 23.6688 90.8678 23.3414 92.3073 22.6871L94.1396 26.0246C92.1763 27.2681 89.624 27.9226 87.5953 27.9226C82.4253 27.9226 78.4331 24.7813 78.4331 19.3494Z" fill="#00A499" />
  <path d="M98.522 11.1689H103.103L103.496 13.1321H103.627C104.936 11.8886 106.703 10.776 109.091 10.776C112.723 10.776 114.294 13.3938 114.294 17.4514V27.5296H108.666V18.1712C108.666 16.3389 108.208 15.5534 106.768 15.5534C105.721 15.5534 105.001 16.0117 104.15 16.7969V27.5298H98.522V11.1691V11.1689Z" fill="#00A499" />
  <path d="M118.087 19.3494C118.087 13.9175 122.603 10.7762 127.675 10.7762C130.227 10.7762 132.485 11.6269 133.859 12.9359L131.307 16.4046C130.096 15.5864 129.049 15.292 128.002 15.292C125.548 15.292 123.847 16.8624 123.847 19.3494C123.847 21.8365 125.515 23.4069 127.806 23.4069C129.409 23.4069 130.718 22.7197 131.831 22.0324L134.056 25.5666C132.027 27.2354 129.409 27.9226 127.25 27.9226C122.08 27.9226 118.088 24.7813 118.088 19.3494H118.087Z" fill="#00A499" />
  <path d="M137.54 15.5534H137.545V11.1688H143.168V27.5296H137.54V15.5534H137.54ZM136.559 5.67169C136.559 3.70843 138.064 2.33398 140.158 2.33398C142.252 2.33398 143.757 3.70843 143.757 5.67169C143.757 7.63494 142.252 8.94392 140.158 8.94392C138.064 8.94392 136.559 7.63494 136.559 5.67169Z" fill="#00A499" />
  <path d="M146.985 22.8831C146.985 19.2185 149.864 17.3205 157.325 16.9279C157.128 15.7499 156.016 15.2265 154.183 15.2265C152.809 15.2265 151.435 15.6846 149.472 16.6008L147.508 12.9361C149.995 11.5617 152.547 10.7765 155.296 10.7765C159.943 10.7765 162.953 13.0671 162.953 18.4335V27.53H158.372L157.979 25.8286H157.848C156.245 27.0065 154.314 27.9228 152.285 27.9228C148.882 27.9228 146.984 25.5668 146.984 22.8836L146.985 22.8831ZM157.325 22.3598V20.2656C153.333 20.3965 152.351 21.3127 152.351 22.4253C152.351 23.178 152.94 23.6033 154.118 23.6033C155.427 23.6033 156.441 23.0143 157.325 22.3598Z" fill="#00A499" />
  <path d="M167.197 10.8587H167.202V4.75555H172.825V27.5298H167.197V10.8587Z" fill="#00A499" />
</svg>
